{
    "asset" : {
        "generator" : "Khronos glTF Blender I/O v1.1.45",
        "version" : "2.0"
    },
    "scene" : 0,
    "scenes" : [
        {
            "name" : "Scene",
            "nodes" : [
                0,
                1,
                2,
                3,
                4,
                5,
                6
            ]
        }
    ],
    "nodes" : [
        {
            "mesh" : 0,
            "name" : "Cylinder"
        },
        {
            "mesh" : 0,
            "name" : "Cylinder.001",
            "translation" : [
                -1,
                -0.20000000298023224,
                0
            ]
        },
        {
            "mesh" : 0,
            "name" : "Cylinder.002",
            "translation" : [
                -0.5,
                0.10000000149011612,
                0.8659999966621399
            ]
        },
        {
            "mesh" : 0,
            "name" : "Cylinder.003",
            "translation" : [
                -0.5,
                -0.10000000149011612,
                -0.8659999966621399
            ]
        },
        {
            "mesh" : 0,
            "name" : "Cylinder.004",
            "translation" : [
                0.5,
                0.20000000298023224,
                -0.8659999966621399
            ]
        },
        {
            "mesh" : 0,
            "name" : "Cylinder.005",
            "translation" : [
                0.5,
                0,
                0.8659999966621399
            ]
        },
        {
            "mesh" : 0,
            "name" : "Cylinder.006",
            "translation" : [
                1,
                0.5,
                0
            ]
        }
    ],
    "meshes" : [
        {
            "name" : "Cylinder.002",
            "primitives" : [
                {
                    "attributes" : {
                        "POSITION" : 0,
                        "NORMAL" : 1,
                        "TEXCOORD_0" : 2
                    },
                    "indices" : 3
                }
            ]
        }
    ],
    "accessors" : [
        {
            "bufferView" : 0,
            "componentType" : 5126,
            "count" : 36,
            "max" : [
                0.4996967017650604,
                0.5,
                0.5770000219345093
            ],
            "min" : [
                -0.4996967017650604,
                -0.5,
                -0.5770000219345093
            ],
            "type" : "VEC3"
        },
        {
            "bufferView" : 1,
            "componentType" : 5126,
            "count" : 36,
            "type" : "VEC3"
        },
        {
            "bufferView" : 2,
            "componentType" : 5126,
            "count" : 36,
            "type" : "VEC2"
        },
        {
            "bufferView" : 3,
            "componentType" : 5123,
            "count" : 60,
            "type" : "SCALAR"
        }
    ],
    "bufferViews" : [
        {
            "buffer" : 0,
            "byteLength" : 432,
            "byteOffset" : 0
        },
        {
            "buffer" : 0,
            "byteLength" : 432,
            "byteOffset" : 432
        },
        {
            "buffer" : 0,
            "byteLength" : 288,
            "byteOffset" : 864
        },
        {
            "buffer" : 0,
            "byteLength" : 120,
            "byteOffset" : 1152
        }
    ],
    "buffers" : [
        {
            "byteLength" : 1272,
            "uri" : "data:application/octet-stream;base64,"
        }
    ]
}
